PathFileType	4	(X/Y/Z)	 s08c0103.trc
DataRate	CameraRate	NumFrames	NumMarkers	Units	OrigDataRate	OrigDataStartFrame	OrigNumFrames
200	200	4	50	mm	200	1251	2000
Frame#	Time	racr			lacr			c7			jug			rlel			rdr			llel			ldr			s2			lic			ric			lasi			rasi			rpsi			lpsi			rgt			lgt			rth1			rth2			rth3			rth4			rlfc			rmfc			rsh1			rsh2			rsh3			rsh4			rlmal			rmmal			rcal			rtoe			rmt5			lth1			lth2			lth4			lth3			llfc			lmfc			llmal			lmmal			lcal			lmt5			lsh1			lsh2			lsh3			lsh4			ltoe			SBIKE			LBIKE			RBIKE			
		X1	Y1	Z1	X2	Y2	Z2	X3	Y3	Z3	X4	Y4	Z4	X5	Y5	Z5	X6	Y6	Z6	X7	Y7	Z7	X8	Y8	Z8	X9	Y9	Z9	X10	Y10	Z10	X11	Y11	Z11	X12	Y12	Z12	X13	Y13	Z13	X14	Y14	Z14	X15	Y15	Z15	X16	Y16	Z16	X17	Y17	Z17	X18	Y18	Z18	X19	Y19	Z19	X20	Y20	Z20	X21	Y21	Z21	X22	Y22	Z22	X23	Y23	Z23	X24	Y24	Z24	X25	Y25	Z25	X26	Y26	Z26	X27	Y27	Z27	X28	Y28	Z28	X29	Y29	Z29	X30	Y30	Z30	X31	Y31	Z31	X32	Y32	Z32	X33	Y33	Z33	X34	Y34	Z34	X35	Y35	Z35	X36	Y36	Z36	X37	Y37	Z37	X38	Y38	Z38	X39	Y39	Z39	X40	Y40	Z40	X41	Y41	Z41	X42	Y42	Z42	X43	Y43	Z43	X44	Y44	Z44	X45	Y45	Z45	X46	Y46	Z46	X47	Y47	Z47	X48	Y48	Z48	X49	Y49	Z49	X50	Y50	Z50	
1251	6.2550	572.668807	1326.190779	-98.349523	528.493090	1360.699217	-395.080661	513.306549	1419.103101	-241.026760	488.388862	1259.464223	-252.355842	595.019484	1093.133943	43.607881	784.884881	887.482477	-40.763043	559.064426	1095.874497	-486.190627	785.754464	920.948443	-412.752378	-41.224818	1217.760634	-177.753646	114.761372	1241.654752	-359.126114	135.464250	1201.405683	-28.829242	126.877104	1187.725338	-293.026849	149.272403	1145.332661	-67.089926	-3.336752	1251.716193	-121.040337	-14.668174	1268.517564	-212.472686	48.725759	1082.012570	-5.672322	59.001056	1137.687653	-380.011418	167.167838	957.301781	-14.451810	238.701007	905.066615	-23.225091	272.866001	825.501529	-32.388592	264.943475	927.463229	-36.576519	329.949410	727.278920	-50.965416	303.690216	722.249522	-161.832383	232.349405	635.685892	-22.089601	199.268817	554.309525	-47.025747	133.847319	500.739080	-51.568601	225.293738	543.158995	-75.066449	54.621078	412.178455	-60.330462	80.589887	421.689051	-148.426623	-21.823879	432.050777	-109.103523	210.184781	242.329522	-98.915422	118.501923	274.404904	-34.944409	155.446186	1041.876286	-396.979939	234.759273	1005.037385	-398.205602	257.714115	1031.189969	-386.454091	285.442618	932.185435	-404.046330	368.336071	826.949321	-387.790610	376.680170	796.658436	-281.076872	295.448617	408.985174	-396.680885	320.706463	433.228216	-312.532975	229.917849	370.541313	-359.568162	444.322231	352.574931	-417.754044	346.461696	699.028859	-414.308831	352.483274	613.961571	-399.518898	317.593038	534.107374	-403.036092	375.680418	613.201067	-367.589286	517.358450	400.449665	-349.322435	-205.112588	918.987839	-229.375906	-0.294131	83.236080	-425.758930	-4.896289	79.935402	-27.620467	
1252	6.2600	573.121565	1323.028466	-96.958667	529.871952	1358.809551	-395.020723	514.106488	1417.476042	-240.561471	488.480776	1257.997849	-252.566551	595.277432	1090.686905	44.528872	786.092730	887.009242	-40.034208	559.475286	1094.096016	-486.381781	786.136899	919.776525	-412.004163	-39.844198	1215.530234	-178.668483	116.846652	1239.635403	-363.464487	136.531640	1199.603643	-29.979440	128.726846	1185.060023	-295.199016	150.278181	1143.629067	-68.194485	-2.535254	1249.725019	-121.916847	-13.398796	1265.967747	-213.738173	46.803934	1082.127229	-6.000799	59.353710	1132.903125	-381.134849	170.972496	957.851143	-14.314665	243.621927	907.347798	-23.169465	279.446441	828.158512	-31.996299	269.387694	930.363327	-36.300975	337.944293	731.855785	-51.419800	313.181483	725.071897	-159.558365	238.418587	642.407117	-22.104620	204.449001	562.202462	-45.356059	136.560682	509.570713	-51.726828	229.205709	549.381171	-75.729304	55.470444	423.275843	-60.232507	81.799964	431.961733	-148.340886	-20.701709	444.372250	-108.876900	208.370477	251.294961	-98.873171	117.204675	284.682236	-34.866057	154.402064	1034.665177	-397.953862	233.044596	996.556598	-399.442477	256.504018	1022.472670	-388.460402	282.495075	922.818322	-404.790365	364.423729	817.414756	-388.539967	372.581502	786.858295	-281.853564	297.112269	398.192130	-396.928842	322.363341	421.074202	-311.027929	231.845416	359.953130	-359.492074	446.255497	341.773841	-417.503560	344.427843	688.363723	-414.300978	351.464122	603.777270	-400.049863	317.599950	522.916420	-402.575595	374.631127	603.562077	-367.946554	519.324656	389.561899	-349.131296	-205.106541	918.853664	-228.779795	-0.198728	83.220106	-425.754272	-4.780749	80.112715	-27.470474	
1253	6.2650	573.458343	1320.609371	-95.010928	531.189133	1356.928224	-394.661326	514.854157	1416.048869	-239.820871	488.656701	1256.676465	-252.007619	596.078955	1088.789796	45.682410	786.838205	886.594763	-39.258354	560.576656	1092.652810	-486.516208	786.490444	918.455608	-411.135988	-38.426952	1213.383813	-179.873538	119.186243	1237.682441	-368.137097	137.648619	1198.071325	-31.253360	130.987211	1182.256184	-297.629901	151.291126	1142.166000	-69.328949	-1.428558	1247.615686	-123.235509	-12.237056	1263.235465	-215.136572	48.860416	1080.030980	-6.955830	59.974270	1127.921611	-382.427334	174.885802	958.592640	-14.069846	248.711964	909.834061	-22.898059	286.668651	831.823774	-31.846027	273.828242	933.352681	-36.594096	345.837359	736.540749	-52.019303	315.331224	732.008423	-165.308357	244.736333	649.361599	-22.348645	209.019398	569.865978	-45.208226	139.825752	518.760623	-51.759676	233.552871	556.928029	-75.104962	56.992184	434.404740	-60.111979	83.420908	442.596258	-148.154102	-18.992503	456.750388	-108.492119	207.122880	260.229428	-99.020644	116.618202	294.897006	-34.778331	153.592989	1027.302153	-399.115701	231.578958	988.063039	-400.667065	255.534791	1013.669495	-390.353226	279.741968	913.388088	-405.433158	360.543640	807.560351	-389.105739	368.444968	776.910082	-282.490401	298.106708	387.608749	-397.026652	324.017516	411.286828	-311.987332	233.074212	349.730059	-359.441412	447.488578	330.922810	-417.289571	341.851708	678.031538	-414.669066	350.112711	593.583161	-400.398698	317.392555	512.020426	-402.214985	373.258464	593.617015	-367.992819	520.661644	378.572135	-348.869309	-204.704566	920.043121	-234.157792	-0.129154	83.245800	-425.724313	-4.711838	80.122975	-27.440522	
1254	6.2700	573.494946	1318.658437	-92.930369	532.368411	1355.214437	-394.331598	515.505214	1414.727928	-238.941218	488.758034	1255.442683	-251.085776	596.350186	1087.249564	47.256602	787.029201	886.197256	-38.327903	562.354111	1091.334337	-486.536899	786.986702	916.395866	-409.771077	-37.106141	1211.251705	-181.552318	121.720839	1235.774678	-372.985046	138.752363	1196.767118	-32.664869	133.555855	1179.449713	-300.462931	151.513879	1140.939993	-71.016605	-0.149160	1245.614330	-125.005067	-10.705031	1260.755952	-217.174144	50.939190	1077.846365	-9.865844	60.754327	1122.888054	-383.877454	178.834986	959.538251	-13.871590	253.814346	912.562964	-22.677581	293.441192	835.249498	-32.162280	278.707609	936.482355	-36.496627	353.787598	741.585199	-52.658020	323.484687	736.703243	-165.942480	251.034532	656.581120	-22.829842	213.786821	577.705296	-45.387481	143.518938	528.104594	-51.780579	238.043640	564.212150	-75.211746	59.152651	445.536496	-59.935072	85.656339	453.206467	-147.926525	-16.631605	469.111561	-108.067015	206.433731	269.424136	-98.959950	116.678998	305.329930	-34.753675	153.146462	1020.329059	-400.428155	230.361236	979.523888	-401.950775	254.775187	1004.979010	-392.484984	277.246217	904.037431	-405.879908	356.882577	797.645809	-389.920426	364.225969	766.894788	-283.031169	298.556704	377.188486	-397.276126	336.062128	410.347013	-325.605635	233.754556	339.758939	-359.457178	448.118388	320.016469	-417.127652	338.880765	667.694446	-414.985044	348.594615	583.507389	-401.045893	316.615518	501.373938	-402.336593	371.476414	583.650323	-368.296019	521.420149	366.945332	-348.195616	-205.483534	920.366858	-234.567416	-0.060078	83.269914	-425.690787	-4.639155	80.104131	-27.417831	
